<svg id="Слой_1" data-name="Слой 1" xmlns="http://www.w3.org/2000/svg" viewBox="0 0 500 500"><defs><style>.cls-1{fill:#1b0499;}.cls-2{fill:#f8aa94;}.cls-3{fill:#df2082;}.cls-4{fill:#6dd6e6;}</style></defs><title>logo_sgp</title><path class="cls-1" d="M234.42515,247.76575H214.34627a8.849,8.849,0,0,0-2.31635-4.08509l-26.76546-26.76546,10.25794-10.25794a2.234,2.234,0,1,0-3.15931-3.15931l-10.25794,10.25794L155.315,186.96569a8.84921,8.84921,0,0,0-4.08509-2.31635V164.57056a2.23421,2.23421,0,0,0-4.46842,0v20.07879a8.84921,8.84921,0,0,0-4.08509,2.31635L115.94508,213.697l-10.199-10.199a2.234,2.234,0,1,0-3.15931,3.15931l10.199,10.199L85.9614,243.68065a8.849,8.849,0,0,0-2.31635,4.08509H63.56618a2.23421,2.23421,0,1,0,0,4.46842H83.64506a8.84921,8.84921,0,0,0,2.31635,4.08509l26.7901,26.7901-10.16476,10.16458a2.234,2.234,0,1,0,3.15931,3.15931l10.16485-10.16449,26.76546,26.76546a8.84952,8.84952,0,0,0,4.08509,2.3163v20.07892a2.23421,2.23421,0,0,0,4.46842,0V315.35052a8.84952,8.84952,0,0,0,4.08509-2.3163l26.82437-26.82437,10.22376,10.2234a2.234,2.234,0,1,0,3.15931-3.15931l-10.22367-10.22349,26.73119-26.73119a8.84921,8.84921,0,0,0,2.31635-4.08509h20.07888a2.23421,2.23421,0,1,0,0-4.46842Z"/><path class="cls-1" d="M205.13561,302.88714a2.234,2.234,0,1,0-3.15931,3.15931l5.95789,5.95789a2.234,2.234,0,0,0,3.15931-3.15931Z"/><path class="cls-1" d="M203.556,197.6986a2.22635,2.22635,0,0,0,1.57966-.65455l5.95789-5.95789a2.234,2.234,0,0,0-3.15931-3.15931l-5.95789,5.95789a2.23421,2.23421,0,0,0,1.57966,3.81386Z"/><path class="cls-1" d="M92.97353,197.044a2.234,2.234,0,0,0,3.15931-3.15931L90.175,187.92684a2.234,2.234,0,0,0-3.15931,3.15931Z"/><path class="cls-1" d="M92.97353,302.88714,87.01564,308.845a2.234,2.234,0,1,0,3.15931,3.15931l5.95789-5.95789a2.234,2.234,0,0,0-3.15931-3.15931Z"/><path class="cls-2" d="M202.0976,244.36078l-15.15985-15.15985a7.99849,7.99849,0,0,0-11.27832,0l-10.492,10.49207,4.66779,4.66779a7.90073,7.90073,0,0,1,1.13757,1.45142c.00775-.00787.0127-.01733.02051-.02515l6.09247-6.09241a5.97539,5.97539,0,0,1,8.42572,0l6.09241,6.09241a5.97547,5.97547,0,0,1,0,8.42578l-6.09241,6.09235a5.97528,5.97528,0,0,1-8.42572,0l-6.09247-6.09235c-.00781-.00781-.01276-.01727-.02051-.02515a7.90073,7.90073,0,0,1-1.13757,1.45142l-4.66779,4.66779,10.492,10.492a7.99838,7.99838,0,0,0,11.27832,0L202.0976,255.639A7.99842,7.99842,0,0,0,202.0976,244.36078Z"/><path class="cls-3" d="M170.0965,276.6637l-10.64294-10.64294-4.81873,4.81873c-.184.184-.376.35541-.57312.51758l6.73285,6.73291a5.97539,5.97539,0,0,1,0,8.42572l-7.586,7.58606a5.97547,5.97547,0,0,1-8.42578,0l-7.586-7.58606a5.97539,5.97539,0,0,1,0-8.42572l6.73285-6.73291c-.19708-.16217-.3891-.33356-.57312-.51758l-4.81873-4.81873L127.89484,276.6637a7.99838,7.99838,0,0,0,0,11.27832l15.46167,15.46167a7.99849,7.99849,0,0,0,11.27832,0L170.0965,287.942A7.99838,7.99838,0,0,0,170.0965,276.6637Z"/><rect class="cls-4" x="137.34446" y="238.34875" width="23.30241" height="23.30241" rx="3.72368" ry="3.72368" transform="translate(-133.13684 178.57914) rotate(-45)"/><path class="cls-3" d="M138.73138,233.78552l4.62512-4.62512a7.89826,7.89826,0,0,1,1.47943-1.15405c-.01666-.0163-.03668-.02686-.05316-.04333l-6.09576-6.09583a5.97532,5.97532,0,0,1,0-8.42566l6.09576-6.09583a5.97547,5.97547,0,0,1,8.42578,0l6.09576,6.09583a5.97532,5.97532,0,0,1,0,8.42566l-6.09576,6.09583c-.01648.01648-.0365.027-.05316.04333a7.89826,7.89826,0,0,1,1.47943,1.15405l4.62512,4.62512L169.752,223.29346a7.99842,7.99842,0,0,0,0-11.27826L154.63483,196.898a7.99849,7.99849,0,0,0-11.27832,0L128.23932,212.0152a7.9983,7.9983,0,0,0,0,11.27826Z"/><path class="cls-2" d="M128.15613,255.6391a7.90073,7.90073,0,0,1-1.13757-1.45142c-.00775.00787-.0127.01733-.02051.02515l-6.09247,6.09235a5.97528,5.97528,0,0,1-8.42572,0l-6.09241-6.09235a5.97547,5.97547,0,0,1,0-8.42578l6.09241-6.09241a5.97539,5.97539,0,0,1,8.42572,0L126.998,245.787c.00781.00781.01276.01727.02051.02515a7.90073,7.90073,0,0,1,1.13757-1.45142l4.66779-4.66779-10.492-10.49207a7.99849,7.99849,0,0,0-11.27832,0L95.89374,244.36078a7.99842,7.99842,0,0,0,0,11.27826l15.15985,15.15985a7.99838,7.99838,0,0,0,11.27832,0l10.492-10.492Z"/><path class="cls-1" d="M258.01568,233.04679q0,1.43222-.08734,2.5884a13.29531,13.29531,0,0,1-.32025,2.1145,15.73493,15.73493,0,0,1-.49493,1.68535,4.07535,4.07535,0,0,1-.7494,1.28854,8.39733,8.39733,0,0,1-.95751.958,4.06392,4.06392,0,0,1-1.23355.67231,13.24959,13.24959,0,0,1-1.4643.44048,12.574,12.574,0,0,1-1.763.2534q-1.057.08734-2.01584.12077-.95751.03316-2.34579.03343-2.62183,0-4.39452-.15419a10.45309,10.45309,0,0,1-3.0181-.661,8.01212,8.01212,0,0,1-1.92742-1.04647,3.57863,3.57863,0,0,1-1.07936-1.71823,10.92634,10.92634,0,0,1-.51757-2.25791q-.12131-1.07882-.20919-3.06177l4.07535-.661q.06551.48522.13209,1.36564a19.18815,19.18815,0,0,0,.25339,1.928,5.09338,5.09338,0,0,0,.47336,1.24433,1.70376,1.70376,0,0,0,1.10146.89227,14.12,14.12,0,0,0,1.96031.36338,26.82326,26.82326,0,0,0,3.2386.15419q1.67322,0,2.75338-.08842a7.93014,7.93014,0,0,0,1.89453-.36338,3.82586,3.82586,0,0,0,1.233-.62756,2.426,2.426,0,0,0,.67284-1.09068,6.39908,6.39908,0,0,0,.31917-1.53061q.0647-.79334.04313-2.115a18.65713,18.65713,0,0,0-.31917-4.01982,1.62295,1.62295,0,0,0-1.26644-1.31065l-10.96985-1.91664a5.6218,5.6218,0,0,1-3.98693-2.18081q-1.12329-1.69586-1.18988-5.48466a24.50783,24.50783,0,0,1,.20972-3.46936,8.84029,8.84029,0,0,1,.72676-2.53341,5.27643,5.27643,0,0,1,1.27776-1.75112,5.73828,5.73828,0,0,1,2.00452-1.06857,12.654,12.654,0,0,1,2.73128-.55046q1.48721-.14314,3.64565-.14341,1.76217,0,3.02888.0771a24.27059,24.27059,0,0,1,2.4671.2755,8.335,8.335,0,0,1,1.99427.55046,6.21176,6.21176,0,0,1,1.4643.91438,3.91561,3.91561,0,0,1,1.04593,1.36564,7.80573,7.80573,0,0,1,.57364,1.88321,13.97091,13.97091,0,0,1,.19732,2.4892l-3.92061.9036q-.22159-2.42289-.28574-2.75392A2.0272,2.0272,0,0,0,251.7606,213.53a14.41082,14.41082,0,0,0-4.60424-.46258q-1.91583,0-3.161.11a12.58492,12.58492,0,0,0-2.0374.31971,2.39509,2.39509,0,0,0-1.17856.62756,2.183,2.183,0,0,0-.51757.89227,4.78042,4.78042,0,0,0-.13209,1.24433v3.81117a2.091,2.091,0,0,0,1.80611,2.37922l7.886,1.34353q1.10146.1763,1.76244.30839.66071.13182,1.51983.3526a6.94509,6.94509,0,0,1,1.34353.46258q.48361.24261,1.07936.61677a3.21864,3.21864,0,0,1,.92516.83674,10.2731,10.2731,0,0,1,.67284,1.10146,5.348,5.348,0,0,1,.50571,1.44273q.16659.80466.275,1.82822A21.74071,21.74071,0,0,1,258.01568,233.04679Z"/><path class="cls-1" d="M282.46777,218.50839l-7.62126,22.99749q-.2879.837-.606,2.0153-.32025,1.17829-.52943,1.90532-.20865.727-.52836,1.59693a5.07443,5.07443,0,0,1-1.61849,2.37922,3.35706,3.35706,0,0,1-1.322.68309,6.8656,6.8656,0,0,1-1.78455.20919,20.64989,20.64989,0,0,1-4.75736-.50679l.65991-3.348q.41891.04367,1.12356.165.70519.12131,1.22277.18708a7.57069,7.57069,0,0,0,.95751.06631,2.50322,2.50322,0,0,0,2.13714-.96937,6.41992,6.41992,0,0,0,.7494-3.59066l-9.05429-23.79h4.38427l4.45,12.26971q1.20983,3.348,2.24605,6.32194.72784-2.66469,2.13714-7.35762l3.32648-11.234Z"/><path class="cls-1" d="M318.74747,242.67311h-4.339v-14.6705q0-2.4892.06577-3.78906a6.14338,6.14338,0,0,0-.11-1.28854,2.88377,2.88377,0,0,0-.48522-1.02436,2.20961,2.20961,0,0,0-1.23355-.78175,7.966,7.966,0,0,0-2.20292-.2534,13.82816,13.82816,0,0,0-2.47788.18708,5.7635,5.7635,0,0,0-1.60771.50679,2.2427,2.2427,0,0,0-.93594.91384,3.7,3.7,0,0,0-.43023,1.24487,11.62653,11.62653,0,0,0-.0992,1.68481q0,.48522.03343,1.72956.03235,1.2446.03343,2.0153v13.52537H300.6184v-15.772q0-1.49773-.02157-2.14793a12.03968,12.03968,0,0,0-.16605-1.51983,2.44877,2.44877,0,0,0-.41837-1.17856,3.86512,3.86512,0,0,0-.84753-.661,3.30653,3.30653,0,0,0-1.38774-.44048,20.067,20.067,0,0,0-2.07137-.08788,10.96917,10.96917,0,0,0-1.50851.0992,7.66509,7.66509,0,0,0-1.377.31917,2.72044,2.72044,0,0,0-1.07936.63888,1.43405,1.43405,0,0,0-.43994.99148q-.28628,2.92914-.28682,6.43192v13.327h-4.339V218.50839H290.64l.41837,2.6434a5.186,5.186,0,0,1,2.53287-2.53341,10.17755,10.17755,0,0,1,4.18587-.74886,8.40584,8.40584,0,0,1,3.96482.79307,4.69259,4.69259,0,0,1,2.15871,2.59919q1.76137-3.4362,6.96136-3.43647a19.178,19.178,0,0,1,2.89625.18762,6.2221,6.2221,0,0,1,2.10372.69387,4.65356,4.65356,0,0,1,1.44273,1.21144,5.53919,5.53919,0,0,1,.87017,1.88321,14.092,14.092,0,0,1,.4518,2.5884q.11969,1.40958.12077,3.45857Z"/><path class="cls-1" d="M357.49535,242.67311h-4.339v-14.6705q0-2.4892.06577-3.78906a6.14338,6.14338,0,0,0-.11-1.28854,2.88378,2.88378,0,0,0-.48522-1.02436,2.20961,2.20961,0,0,0-1.23355-.78175,7.966,7.966,0,0,0-2.20292-.2534,13.82816,13.82816,0,0,0-2.47788.18708,5.7635,5.7635,0,0,0-1.60771.50679,2.2427,2.2427,0,0,0-.93594.91384,3.7,3.7,0,0,0-.43023,1.24487,11.62654,11.62654,0,0,0-.0992,1.68481q0,.48522.03343,1.72956.03235,1.2446.03343,2.0153v13.52537h-4.34006v-15.772q0-1.49773-.02157-2.14793a12.03966,12.03966,0,0,0-.16605-1.51983,2.44877,2.44877,0,0,0-.41837-1.17856,3.86512,3.86512,0,0,0-.84753-.661,3.30653,3.30653,0,0,0-1.38774-.44048,20.067,20.067,0,0,0-2.07137-.08788,10.96916,10.96916,0,0,0-1.50851.0992,7.66509,7.66509,0,0,0-1.377.31917,2.72043,2.72043,0,0,0-1.07936.63888,1.43405,1.43405,0,0,0-.43994.99148q-.28628,2.92914-.28682,6.43192v13.327h-4.339V218.50839h3.96482l.41837,2.6434a5.186,5.186,0,0,1,2.53287-2.53341,10.17755,10.17755,0,0,1,4.18587-.74886,8.40584,8.40584,0,0,1,3.96482.79307,4.69259,4.69259,0,0,1,2.15871,2.59919q1.76137-3.4362,6.96136-3.43647a19.178,19.178,0,0,1,2.89625.18762,6.2221,6.2221,0,0,1,2.10372.69387,4.65356,4.65356,0,0,1,1.44273,1.21144,5.53919,5.53919,0,0,1,.87017,1.88321,14.092,14.092,0,0,1,.4518,2.5884q.11969,1.40958.12077,3.45857Z"/><path class="cls-1" d="M383.13569,230.2492q-2.64286.26445-3.28227.30839H367.84788q.02264,3.1944.17684,7.005a2.07064,2.07064,0,0,0,1.2659,1.94952,13.93778,13.93778,0,0,0,4.505.47336,20.10474,20.10474,0,0,0,2.15871-.0992,4.92969,4.92969,0,0,0,1.46538-.35206,5.15837,5.15837,0,0,0,.881-.48469,1.36125,1.36125,0,0,0,.47336-.72676,5.24184,5.24184,0,0,0,.1984-.83728q.04367-.34127.08842-1.03515.04367-.69387.11-1.13489l3.36962.61731a19.8232,19.8232,0,0,1-.22,2.61,6.36588,6.36588,0,0,1-.59521,1.88375,4.01977,4.01977,0,0,1-.99094,1.28854,4.58085,4.58085,0,0,1-1.54194.78175,9.79109,9.79109,0,0,1-2.13607.40759q-1.16939.09947-2.88655.0992a25.29439,25.29439,0,0,1-3.8322-.2534,18.27091,18.27091,0,0,1-2.78735-.62756,4.21611,4.21611,0,0,1-1.90532-1.22277,9.41,9.41,0,0,1-1.17856-1.619,6.60334,6.60334,0,0,1-.62756-2.26869q-.19732-1.49773-.2534-2.72049-.055-1.22277-.055-3.38148,0-3.03993.07764-4.73633a21.5815,21.5815,0,0,1,.42915-3.403,6.22988,6.22988,0,0,1,.94673-2.47842,5.79486,5.79486,0,0,1,1.763-1.43141,7.26328,7.26328,0,0,1,2.75284-.84806,35.585,35.585,0,0,1,4.03168-.18762q1.69505,0,2.92968.0992a11.06127,11.06127,0,0,1,2.26869.40759,7.71287,7.71287,0,0,1,1.70691.70519,3.746,3.746,0,0,1,1.19042,1.16723,6.65078,6.65078,0,0,1,.79253,1.59693,12.05707,12.05707,0,0,1,.4518,2.19214q.1763,1.36591.22,2.76416Q383.13515,228.15681,383.13569,230.2492Zm-15.26517-2.00452h10.9251q-.04367-2.81915-.22-5.1547a1.90432,1.90432,0,0,0-1.15591-1.79533,11.43784,11.43784,0,0,0-3.91091-.45126,13.34635,13.34635,0,0,0-3.98639.3526,1.49872,1.49872,0,0,0-.6502.38548,2.04192,2.04192,0,0,0-.4518.78175,7.07095,7.07095,0,0,0-.42915,2.17q-.055.782-.07656,1.21144-.02264.42942-.03343,1.31065Q367.87,227.93684,367.87053,228.24469Z"/><path class="cls-1" d="M398.55505,239.61134l-.08842,3.08387a20.56177,20.56177,0,0,1-3.348.30839,8.446,8.446,0,0,1-2.65472-.3526,2.98227,2.98227,0,0,1-1.57428-1.12356,4.71745,4.71745,0,0,1-.72784-1.70691,11.90928,11.90928,0,0,1-.1984-2.39v-16.455h-3.2812v-2.4671h3.2812v-6.87294l4.3185-.35206v7.225h4.449v2.4671h-4.449v14.97888a12.53733,12.53733,0,0,0,.23075,3.08387q.23129.706,1.267.70519Q396.79207,239.74343,398.55505,239.61134Z"/><path class="cls-1" d="M414.988,217.95793l-.17684,3.67854a12.19774,12.19774,0,0,0-1.58615-.11052,8.54337,8.54337,0,0,0-2.53287.30893,2.64587,2.64587,0,0,0-1.4643,1.05725,4.39941,4.39941,0,0,0-.661,1.70691,15.80846,15.80846,0,0,0-.165,2.5663q0,.90333.07656,2.6434.07764,1.74034.07764,2.4892v10.37518H404.216V218.50839h3.94326l.43994,2.70917a5.28219,5.28219,0,0,1,2.07137-2.45578,6.13269,6.13269,0,0,1,3.32541-.87017A7.65089,7.65089,0,0,1,414.988,217.95793Z"/><path class="cls-1" d="M438.668,218.50839l-7.62126,22.99749q-.2879.837-.606,2.0153-.32025,1.17829-.52943,1.90532-.20865.727-.52836,1.59693a5.07443,5.07443,0,0,1-1.61849,2.37922,3.35706,3.35706,0,0,1-1.322.68309,6.8656,6.8656,0,0,1-1.78455.20919,20.66616,20.66616,0,0,1-4.75844-.50679l.661-3.348q.41891.04367,1.12356.165.70519.12131,1.22277.18708a7.57355,7.57355,0,0,0,.95859.06631,2.50251,2.50251,0,0,0,2.13607-.96937,6.41992,6.41992,0,0,0,.7494-3.59066l-9.05321-23.79h4.3832l4.45,12.26971q1.20983,3.348,2.24605,6.32194.72784-2.66469,2.13714-7.35762l3.32648-11.234Z"/><path class="cls-1" d="M254.0487,270.71154v11.25829q-2.50214,2.29026-10.13041,2.29026a24.81248,24.81248,0,0,1-2.63423-.12292q-1.13623-.12373-2.07892-.31755a4.29621,4.29621,0,0,1-1.612-.66044,10.71912,10.71912,0,0,1-1.18017-.94241,3.367,3.367,0,0,1-.82812-1.38343,18.0865,18.0865,0,0,1-.51973-1.75274,14.32086,14.32086,0,0,1-.29976-2.273q-.097-1.42737-.13209-2.73074-.03558-1.30364-.035-3.34751,0-1.74438.02642-2.97766.02588-1.23328.12292-2.51939a18.67514,18.67514,0,0,1,.26472-2.14092A13.87525,13.87525,0,0,1,235.47,261.365a5.27115,5.27115,0,0,1,.67824-1.40985,6.97,6.97,0,0,1,.96937-1.06588,4.22051,4.22051,0,0,1,1.295-.81033,12.77246,12.77246,0,0,1,3.74378-.81949q1.12734-.07925,2.55444-.07925h.26472q1.23247,0,1.86758.01779.634.01779,1.71769.13209a6.36373,6.36373,0,0,1,1.66486.3526,9.45022,9.45022,0,0,1,1.33922.70465,3.09708,3.09708,0,0,1,1.12734,1.14513,7.96325,7.96325,0,0,1,.65236,1.71769,9.20678,9.20678,0,0,1,.28143,2.39647q0,.317-.03558.881l-3.15342.599-.19355-3.471a1.48433,1.48433,0,0,0-1.28638-1.45352,22.36189,22.36189,0,0,0-4.73957-.32618,16.55529,16.55529,0,0,0-3.5939.29113,2.98222,2.98222,0,0,0-1.69128.88958,3.31353,3.31353,0,0,0-.58173,1.77916q-.15851,3.6125-.15851,7.40021,0,3.805.15851,7.39967a10.1356,10.1356,0,0,0,.29976,2.46656,2.01163,2.01163,0,0,0,1.53277,1.16292,18.53466,18.53466,0,0,0,3.9287.282q6.02568,0,6.67777-.81086-.01779-1.81393-.01779-7.36409H246.332l-.29976-2.66065Z"/><path class="cls-1" d="M267.70292,264.06936l-.14018,2.94208a9.83084,9.83084,0,0,0-1.26913-.08788,6.85166,6.85166,0,0,0-2.02608.24693,2.11153,2.11153,0,0,0-1.171.84537,3.50336,3.50336,0,0,0-.52836,1.36564,12.57608,12.57608,0,0,0-.13263,2.0525q0,.72218.06146,2.114.06146,1.39259.06146,1.991v8.29842h-3.471V264.50983h3.154l.3526,2.1668a4.23029,4.23029,0,0,1,1.65623-1.96408,4.90184,4.90184,0,0,1,2.66011-.696A6.15851,6.15851,0,0,1,267.70292,264.06936Z"/><path class="cls-1" d="M278.99679,284.10158a27.775,27.775,0,0,1-3.25855-.15851,5.938,5.938,0,0,1-2.24713-.696,5.05968,5.05968,0,0,1-1.43626-1.14513,4.64607,4.64607,0,0,1-.7742-1.92041,16.04063,16.04063,0,0,1-.345-2.59865q-.06146-1.28585-.06038-3.57664,0-1.7088.04313-2.8542a21.8167,21.8167,0,0,1,.20272-2.24659,9.63393,9.63393,0,0,1,.39681-1.77916,4.89411,4.89411,0,0,1,.68794-1.28638,3.26131,3.26131,0,0,1,1.01142-.92462,6.41136,6.41136,0,0,1,1.43626-.55531,10.22759,10.22759,0,0,1,1.90424-.317q1.02868-.07925,2.45631-.07925,1.42656,0,2.45847.07925a10.17366,10.17366,0,0,1,1.90208.317,6.32974,6.32974,0,0,1,1.43626.55531,3.26754,3.26754,0,0,1,1.01358.92462,4.824,4.824,0,0,1,.68578,1.28638,9.63393,9.63393,0,0,1,.39681,1.77916,21.23132,21.23132,0,0,1,.20272,2.24659q.04529,1.14513.04529,2.8542,0,2.29026-.06254,3.57664a16.03381,16.03381,0,0,1-.34289,2.59865,4.62764,4.62764,0,0,1-.785,1.929,4.94884,4.94884,0,0,1-1.44489,1.14567,6.041,6.041,0,0,1-2.245.68686A27.98166,27.98166,0,0,1,278.99679,284.10158Zm.0345-2.43151a13.84157,13.84157,0,0,0,3.48068-.36985,1.238,1.238,0,0,0,.97692-1.2508q.19409-2.51912.19409-5.83186,0-1.09176-.08842-3.127-.08734-2.03552-.08626-3.02187a1.526,1.526,0,0,0-.097-.54615.95082.95082,0,0,0-.317-.41406,4.033,4.033,0,0,0-.44209-.2906,2.01825,2.01825,0,0,0-.61677-.19409c-.2631-.04637-.48738-.08788-.66853-.12292a5.29679,5.29679,0,0,0-.77636-.07063c-.33427-.01132-.59305-.01779-.7742-.01779H278.214c-.18331,0-.44209.00647-.77636.01779a5.26179,5.26179,0,0,0-.7742.07063c-.18331.035-.40543.07656-.67069.12292a2.03839,2.03839,0,0,0-.61677.19409,3.81709,3.81709,0,0,0-.43994.2906.95081.95081,0,0,0-.317.41406,1.48046,1.48046,0,0,0-.097.54615q0,.98743-.08842,3.02187-.08734,2.03471-.08842,3.127,0,3.31247.19409,5.83186a1.29133,1.29133,0,0,0,1.03083,1.27722A12.18782,12.18782,0,0,0,279.0313,281.67007Z"/><path class="cls-1" d="M307.30911,283.8552h-3.20572l-.31809-2.48435a3.37274,3.37274,0,0,1-1.99913,2.06113,10.96274,10.96274,0,0,1-6.31655.37039,4.77372,4.77372,0,0,1-1.73495-.87233,3.63864,3.63864,0,0,1-1.075-1.6034,10.06221,10.06221,0,0,1-.52836-2.30805,27.95,27.95,0,0,1-.14988-3.17984V264.50983h3.471v11.22324q0,.38737-.00863,1.04809-.0097.66071-.0097.92516,0,.93406.03558,1.46214a4.81271,4.81271,0,0,0,.18546,1.03946,1.68483,1.68483,0,0,0,.39573.74886,2.26831,2.26831,0,0,0,.74078.43185,3.9764,3.9764,0,0,0,1.1365.24639q.64211.05257,1.64653.05284a9.96207,9.96207,0,0,0,1.92041-.15851,4.37122,4.37122,0,0,0,1.2508-.41406,1.718,1.718,0,0,0,.69657-.696,2.79352,2.79352,0,0,0,.30839-.86316,6.67632,6.67632,0,0,0,.07009-1.05725q0-.21107-.00863-.68686c-.00647-.317-.00863-.558-.00863-.72245V264.50983h3.50548Z"/><path class="cls-1" d="M328.55871,274.306q0,1.62065-.06254,2.74853-.06146,1.12734-.22859,2.23742a6.79389,6.79389,0,0,1-.49385,1.81474,6.04411,6.04411,0,0,1-.84537,1.33005,3.44412,3.44412,0,0,1-1.27668.96021,7.90833,7.90833,0,0,1-1.78024.51973,13.48133,13.48133,0,0,1-2.37868.18492q-4.65007,0-5.32022-2.07892v8.36958l-3.471.2631V264.50983h3.154l.33427,2.13175q1.074-2.67763,5.63831-2.6779a16.64146,16.64146,0,0,1,1.70044.07925,6.40784,6.40784,0,0,1,1.391.2906,8.40112,8.40112,0,0,1,1.11063.45827,2.885,2.885,0,0,1,.86262.67824,6.02356,6.02356,0,0,1,.64373.87233,4.50608,4.50608,0,0,1,.44964,1.11871q.18439.67851.29868,1.33005a15.30637,15.30637,0,0,1,.17684,1.59423q.06146.943.07871,1.81474Q328.55817,273.0727,328.55871,274.306Zm-3.471-1.14567q-.03558-3.54133-.10567-4.68619a1.79276,1.79276,0,0,0-.92516-1.65623,8.80778,8.80778,0,0,0-3.37393-.42268q-3.18954,0-4.08775,1.02167-.49331.723-.49385,4.21067,0,.70519.027,2.09671.02588,1.39179.027,2.00883,0,.61624-.04421,1.58561-.04529.96883-.04421,1.33868a3.50168,3.50168,0,0,0,.34289,1.69182,2.39219,2.39219,0,0,0,1.3748.97746,9.11893,9.11893,0,0,0,2.89841.36122,9.394,9.394,0,0,0,3.471-.42268q.96883-.45773.96829-4.73957,0-.65182-.01725-1.79695Q325.0872,273.58353,325.08774,273.16031Z"/><path class="cls-1" d="M358.42159,266.14827a20.803,20.803,0,0,1-.17576,2.8542,12.74586,12.74586,0,0,1-.46689,2.14092,4.85421,4.85421,0,0,1-.79361,1.52361,5.04405,5.04405,0,0,1-1.05671,1.02221,4.39308,4.39308,0,0,1-1.33922.60761,8.57666,8.57666,0,0,1-1.55056.2906q-.76665.07117-1.78778.07063h-6.99478v9.17937h-3.55939V257.58568h9.51471a24.61374,24.61374,0,0,1,2.77441.13209,9.28677,9.28677,0,0,1,2.10587.48469,4.05808,4.05808,0,0,1,1.55056.951,5.23323,5.23323,0,0,1,1.00388,1.56835,8.34282,8.34282,0,0,1,.58982,2.28163A27.29985,27.29985,0,0,1,358.42159,266.14827Zm-3.55939-.19355q-.01779-1.26886-.07009-2.06167a10.5941,10.5941,0,0,0-.20272-1.49773,3.31158,3.31158,0,0,0-.3871-1.0745,2.204,2.204,0,0,0-.65236-.64319,2.43837,2.43837,0,0,0-.96937-.36122,9.10728,9.10728,0,0,0-1.38235-.08788h-6.94195v11.76939h6.2195a8.978,8.978,0,0,0,2.23742-.22913,2.68727,2.68727,0,0,0,1.34785-.76665,2.79956,2.79956,0,0,0,.65236-1.25943,8.55737,8.55737,0,0,0,.16713-1.86758q0-.28224-.00863-.91654Q354.8622,266.32457,354.8622,265.95472Z"/><path class="cls-1" d="M378.03005,283.8552h-3.20572l-.31809-2.48435a3.37274,3.37274,0,0,1-1.99913,2.06113,10.96274,10.96274,0,0,1-6.31655.37039,4.77372,4.77372,0,0,1-1.73495-.87233,3.63864,3.63864,0,0,1-1.075-1.6034,10.06221,10.06221,0,0,1-.52836-2.30805,27.95,27.95,0,0,1-.14988-3.17984V264.50983h3.471v11.22324q0,.38737-.00863,1.04809-.0097.66071-.0097.92516,0,.93406.03558,1.46214a4.81271,4.81271,0,0,0,.18546,1.03946,1.68483,1.68483,0,0,0,.39573.74886,2.26831,2.26831,0,0,0,.74078.43185,3.9764,3.9764,0,0,0,1.1365.24639q.64211.05257,1.64653.05284a9.96207,9.96207,0,0,0,1.92041-.15851,4.37122,4.37122,0,0,0,1.2508-.41406,1.718,1.718,0,0,0,.69657-.696,2.79352,2.79352,0,0,0,.30839-.86316,6.67632,6.67632,0,0,0,.07009-1.05725q0-.21107-.00863-.68686c-.00647-.317-.00863-.558-.00863-.72245V264.50983h3.50548Z"/><path class="cls-1" d="M394.5223,283.83741H382.3658l-.29976-2.48435,9.03812-14.4295h-8.22833l-.15851-2.41372h11.6993l.15851,2.41372-9.00361,14.53517h9.10928Z"/><path class="cls-1" d="M409.6915,283.83741H397.535l-.29976-2.48435,9.03812-14.4295H398.045l-.15851-2.41372h11.6993l.15851,2.41372-9.00361,14.53517H409.85Z"/><path class="cls-1" d="M417.39147,283.83741h-3.471V257.6563l3.471-.282Z"/><path class="cls-1" d="M438.05665,273.90055q-2.114.21107-2.62453.24639h-9.60206q.01617,2.55552.14018,5.60273a1.65842,1.65842,0,0,0,1.01358,1.55973,11.15347,11.15347,0,0,0,3.60252.37848,16.14606,16.14606,0,0,0,1.7274-.07925,3.93016,3.93016,0,0,0,1.171-.282,4.07821,4.07821,0,0,0,.70519-.38764,1.0832,1.0832,0,0,0,.37848-.58119,4.14142,4.14142,0,0,0,.15851-.66961c.02372-.18169.04744-.45827.07117-.82812.02264-.36985.05284-.67231.08734-.90737l2.69569.49331a15.97652,15.97652,0,0,1-.17576,2.08808,5.1529,5.1529,0,0,1-.47552,1.50635,3.22475,3.22475,0,0,1-.79361,1.03029,3.65879,3.65879,0,0,1-1.23247.62594,7.85567,7.85567,0,0,1-1.70907.32564q-.93487.07925-2.30859.07925a20.20056,20.20056,0,0,1-3.06554-.20272,14.549,14.549,0,0,1-2.2288-.50194,3.36723,3.36723,0,0,1-1.52361-.978,7.4388,7.4388,0,0,1-.94241-1.295,5.24361,5.24361,0,0,1-.50248-1.81474q-.15851-1.1977-.20272-2.17542-.04367-.97854-.04421-2.70486,0-2.431.06146-3.788a17.37109,17.37109,0,0,1,.344-2.72211,4.9513,4.9513,0,0,1,.758-1.98187,4.61811,4.61811,0,0,1,1.40931-1.14513,5.8028,5.8028,0,0,1,2.20184-.67824,28.422,28.422,0,0,1,3.224-.14988q1.357,0,2.3431.07925a8.83026,8.83026,0,0,1,1.81474.32618,6.20552,6.20552,0,0,1,1.36618.5634,2.99579,2.99579,0,0,1,.951.93379,5.29276,5.29276,0,0,1,.634,1.27722,9.62977,9.62977,0,0,1,.36122,1.75328q.14072,1.09256.17684,2.211Q438.05611,272.22706,438.05665,273.90055Zm-12.20933-1.6034h8.73836q-.03558-2.25468-.17576-4.12279a1.52465,1.52465,0,0,0-.92516-1.43573,9.13064,9.13064,0,0,0-3.127-.36122,10.69733,10.69733,0,0,0-3.18954.282,1.2128,1.2128,0,0,0-.51973.30839,1.64023,1.64023,0,0,0-.36122.6254,7.0048,7.0048,0,0,0-.22.75749,6.89214,6.89214,0,0,0-.12292.978c-.02911.41675-.05068.7397-.06146.96883q-.01779.3437-.027,1.04809Q425.84786,272.05076,425.84732,272.29715Z"/></svg>