<svg id="Слой_1" data-name="Слой 1" xmlns="http://www.w3.org/2000/svg" viewBox="0 0 175.3274 175.3272"><defs><style>.cls-1{fill:#1b0499;}.cls-2{fill:#f8aa94;}.cls-3{fill:#df2082;}.cls-4{fill:#6dd6e6;}</style></defs><title>logo_sgp_only_sign</title><path class="cls-1" d="M335.42949,247.7657h-20.0789a8.84871,8.84871,0,0,0-2.3163-4.085l-26.7655-26.7655,10.2579-10.2579a2.234,2.234,0,0,0-3.1593-3.1594l-10.2579,10.258-26.7902-26.7902a8.84969,8.84969,0,0,0-4.0851-2.3164V164.5706a2.2342,2.2342,0,1,0-4.4684,0v20.0787a8.84975,8.84975,0,0,0-4.0851,2.3164l-26.7313,26.7313-10.199-10.1991a2.234,2.234,0,0,0-3.1593,3.1594l10.199,10.199-26.8244,26.8244a8.84871,8.84871,0,0,0-2.3163,4.085H164.5705a2.23425,2.23425,0,0,0,0,4.4685h20.0789a8.85,8.85,0,0,0,2.3163,4.0851l26.7901,26.7901-10.1647,10.1645a2.234,2.234,0,1,0,3.1593,3.1593l10.1648-10.1644,26.7655,26.7654a8.84955,8.84955,0,0,0,4.0851,2.3163v20.0789a2.2342,2.2342,0,1,0,4.4684,0V315.3505a8.84949,8.84949,0,0,0,4.0851-2.3163l26.8244-26.8244,10.2237,10.2234a2.234,2.234,0,1,0,3.1593-3.1593l-10.2236-10.2235,26.7312-26.7311a8.85,8.85,0,0,0,2.3163-4.0851h20.0789a2.23425,2.23425,0,0,0,0-4.4685Z" transform="translate(-162.3363 -162.3364)"/><path class="cls-1" d="M306.13989,302.8871a2.234,2.234,0,0,0-3.1593,3.1593l5.9579,5.9579a2.234,2.234,0,1,0,3.1593-3.1593Z" transform="translate(-162.3363 -162.3364)"/><path class="cls-1" d="M304.56029,197.6986a2.22621,2.22621,0,0,0,1.5796-.6546l5.9579-5.9578a2.234,2.234,0,1,0-3.1593-3.1594l-5.9579,5.9579a2.23425,2.23425,0,0,0,1.5797,3.8139Z" transform="translate(-162.3363 -162.3364)"/><path class="cls-1" d="M193.9779,197.044a2.234,2.234,0,0,0,3.1593-3.1593l-5.9579-5.9579a2.234,2.234,0,0,0-3.1593,3.1594Z" transform="translate(-162.3363 -162.3364)"/><path class="cls-1" d="M193.9779,302.8871,188.02,308.845a2.234,2.234,0,1,0,3.1593,3.1593l5.9579-5.9579a2.234,2.234,0,0,0-3.1593-3.1593Z" transform="translate(-162.3363 -162.3364)"/><path class="cls-2" d="M303.10189,244.3608l-15.1598-15.1599a7.99847,7.99847,0,0,0-11.2783,0l-10.492,10.4921,4.6677,4.6678a7.90048,7.90048,0,0,1,1.1376,1.4514c.0078-.0079.0127-.0173.0205-.0252l6.0925-6.0924a5.97551,5.97551,0,0,1,8.4257,0l6.0924,6.0924a5.97545,5.97545,0,0,1,0,8.4258l-6.0924,6.0924a5.97533,5.97533,0,0,1-8.4257,0l-6.0925-6.0924c-.0078-.0078-.0127-.0172-.0205-.0251a7.90048,7.90048,0,0,1-1.1376,1.4514l-4.6677,4.6678,10.492,10.492a7.99828,7.99828,0,0,0,11.2783,0l15.1598-15.1599A7.99835,7.99835,0,0,0,303.10189,244.3608Z" transform="translate(-162.3363 -162.3364)"/><path class="cls-3" d="M271.10079,276.6637l-10.6429-10.6429-4.8187,4.8187c-.1841.184-.3761.3554-.57319.5176l6.73289,6.7329a5.97531,5.97531,0,0,1,0,8.4257l-7.586,7.586a5.97545,5.97545,0,0,1-8.4258,0l-7.586-7.586a5.97534,5.97534,0,0,1,0-8.4257l6.73291-6.7329c-.19711-.1622-.38911-.3336-.57321-.5176l-4.8187-4.8187-10.6429,10.6429a7.99828,7.99828,0,0,0,0,11.2783l15.4616,15.4617a7.99859,7.99859,0,0,0,11.2784,0l15.4616-15.4617A7.99828,7.99828,0,0,0,271.10079,276.6637Z" transform="translate(-162.3363 -162.3364)"/><path class="cls-4" d="M242.07244,238.34877h15.855a3.72369,3.72369,0,0,1,3.72369,3.72369v15.855a3.72362,3.72362,0,0,1-3.72362,3.72362h-15.855a3.7237,3.7237,0,0,1-3.7237-3.7237v-15.855a3.72362,3.72362,0,0,1,3.72362-3.72362Z" transform="translate(-265.88965 87.66368) rotate(-45.00002)"/><path class="cls-3" d="M239.73569,233.7855l4.6251-4.6251a7.89765,7.89765,0,0,1,1.4795-1.1541c-.0167-.0162-.0367-.0268-.0532-.0433l-6.0958-6.0958a5.97551,5.97551,0,0,1,0-8.4257l6.0958-6.0958a5.97545,5.97545,0,0,1,8.4258,0l6.0958,6.0958a5.97551,5.97551,0,0,1,0,8.4257l-6.0958,6.0958c-.0165.0165-.0365.0271-.0532.0433a7.89765,7.89765,0,0,1,1.4795,1.1541l4.6251,4.6251,10.4921-10.492a7.99847,7.99847,0,0,0,0-11.2783l-15.1172-15.1172a7.99859,7.99859,0,0,0-11.2784,0l-15.1171,15.1172a7.99828,7.99828,0,0,0,0,11.2783Z" transform="translate(-162.3363 -162.3364)"/><path class="cls-2" d="M229.16049,255.6391a7.90047,7.90047,0,0,1-1.1376-1.4514c-.0078.0079-.0127.0173-.0205.0251l-6.0925,6.0924a5.97533,5.97533,0,0,1-8.4257,0l-6.0924-6.0924a5.97545,5.97545,0,0,1,0-8.4258l6.0924-6.0924a5.97551,5.97551,0,0,1,8.4257,0l6.0925,6.0924c.0078.0079.0127.0173.0205.0252a7.90047,7.90047,0,0,1,1.1376-1.4514l4.6678-4.6678-10.4921-10.4921a7.99847,7.99847,0,0,0-11.2783,0l-15.1598,15.1599a7.99835,7.99835,0,0,0,0,11.2782l15.1598,15.1599a7.99828,7.99828,0,0,0,11.2783,0l10.4921-10.492Z" transform="translate(-162.3363 -162.3364)"/></svg>